<svg version="1.1" id="_x32_" xmlns="http://www.w3.org/2000/svg" xmlns:xlink="http://www.w3.org/1999/xlink" x="0px" y="0px" width="512px" height="512px" viewBox="0 0 512 512" style="width: 256px; height: 256px; opacity: 1;">
  <style type="text/css">

	.st0{fill:#4B4B4B;}

</style>
  <g>
    <path d="M 24.775 80.224 C 29.33 75.403 43.381 73.175 43.381 73.175 L 468.372 73.175 C 468.372 73.175 481.762 74.242 486.123 78.636 C 490.205 82.749 491.108 95.291 491.108 95.291 L 491.108 367.846 C 491.108 367.846 492.239 384.123 487.545 389.907 C 483.578 394.795 469.919 396.691 469.919 396.691 L 207.587 396.2 L 180.924 494.336 L 104.194 396.691 L 41.426 396.691 C 41.426 396.691 28.199 395.772 23.991 391.391 C 19.812 387.04 19.429 373.877 19.429 373.877 L 19.429 97.186 C 19.429 97.186 20.704 84.533 24.775 80.224 Z" style="stroke: rgb(0, 0, 0); fill: rgb(85, 85, 85);"></path>
    <path class="st0" d="M 205.519 147.936 C 204.488 147.327 203.175 147.295 202.113 147.905 C 201.082 148.499 200.425 149.624 200.425 150.843 L 200.425 236.781 L 200.425 322.734 C 200.425 323.968 201.081 325.078 202.113 325.672 C 203.176 326.297 204.488 326.266 205.519 325.641 L 349.519 239.688 C 350.55 239.094 351.16 237.985 351.16 236.782 C 351.16 235.61 350.551 234.485 349.519 233.891 L 205.519 147.936 Z" style="fill: rgb(255, 255, 255);"></path>
  </g>
</svg>